<mxfile host="app.diagrams.net" modified="2024-02-27T13:01:45.889Z" agent="Mozilla/5.0 (Macintosh; Intel Mac OS X 10_15_7) AppleWebKit/605.1.15 (KHTML, like Gecko) Version/15.6.1 Safari/605.1.15" etag="plmGixg2WuokdzSwqN4a" version="23.1.7" type="github">
  <diagram id="C5RBs43oDa-KdzZeNtuy" name="Page-1">
    <mxGraphModel dx="1194" dy="1768" grid="1" gridSize="10" guides="1" tooltips="1" connect="1" arrows="1" fold="1" page="1" pageScale="1" pageWidth="827" pageHeight="1169" math="0" shadow="0">
      <root>
        <mxCell id="WIyWlLk6GJQsqaUBKTNV-0" />
        <mxCell id="WIyWlLk6GJQsqaUBKTNV-1" parent="WIyWlLk6GJQsqaUBKTNV-0" />
        <mxCell id="ytx-gQCru5eeBBM0S1Tw-6" value="" style="edgeStyle=orthogonalEdgeStyle;rounded=0;orthogonalLoop=1;jettySize=auto;html=1;" edge="1" parent="WIyWlLk6GJQsqaUBKTNV-1" source="ytx-gQCru5eeBBM0S1Tw-2" target="ytx-gQCru5eeBBM0S1Tw-5">
          <mxGeometry relative="1" as="geometry" />
        </mxCell>
        <mxCell id="ytx-gQCru5eeBBM0S1Tw-2" value="Start filmsamlingsprogram" style="rounded=1;whiteSpace=wrap;html=1;arcSize=40;fontColor=#000000;fillColor=#ffffc0;strokeColor=#ff0000;" vertex="1" parent="WIyWlLk6GJQsqaUBKTNV-1">
          <mxGeometry x="380" y="80" width="120" height="40" as="geometry" />
        </mxCell>
        <mxCell id="ytx-gQCru5eeBBM0S1Tw-13" value="" style="edgeStyle=orthogonalEdgeStyle;rounded=0;orthogonalLoop=1;jettySize=auto;html=1;" edge="1" parent="WIyWlLk6GJQsqaUBKTNV-1" source="ytx-gQCru5eeBBM0S1Tw-5" target="ytx-gQCru5eeBBM0S1Tw-10">
          <mxGeometry relative="1" as="geometry" />
        </mxCell>
        <mxCell id="ytx-gQCru5eeBBM0S1Tw-5" value="Menu" style="rounded=1;whiteSpace=wrap;html=1;arcSize=40;fontColor=#000000;fillColor=#ffffc0;strokeColor=#ff0000;" vertex="1" parent="WIyWlLk6GJQsqaUBKTNV-1">
          <mxGeometry x="380" y="160" width="120" height="40" as="geometry" />
        </mxCell>
        <mxCell id="ytx-gQCru5eeBBM0S1Tw-7" value="" style="ellipse;html=1;shape=startState;fillColor=#000000;strokeColor=#ff0000;" vertex="1" parent="WIyWlLk6GJQsqaUBKTNV-1">
          <mxGeometry x="425" y="-10" width="30" height="30" as="geometry" />
        </mxCell>
        <mxCell id="ytx-gQCru5eeBBM0S1Tw-8" value="" style="edgeStyle=orthogonalEdgeStyle;html=1;verticalAlign=bottom;endArrow=open;endSize=8;strokeColor=#ff0000;rounded=0;" edge="1" source="ytx-gQCru5eeBBM0S1Tw-7" parent="WIyWlLk6GJQsqaUBKTNV-1">
          <mxGeometry relative="1" as="geometry">
            <mxPoint x="440" y="80" as="targetPoint" />
          </mxGeometry>
        </mxCell>
        <mxCell id="ytx-gQCru5eeBBM0S1Tw-18" style="edgeStyle=orthogonalEdgeStyle;rounded=0;orthogonalLoop=1;jettySize=auto;html=1;" edge="1" parent="WIyWlLk6GJQsqaUBKTNV-1" source="ytx-gQCru5eeBBM0S1Tw-10">
          <mxGeometry relative="1" as="geometry">
            <mxPoint x="290" y="340" as="targetPoint" />
          </mxGeometry>
        </mxCell>
        <mxCell id="ytx-gQCru5eeBBM0S1Tw-20" value="" style="edgeStyle=orthogonalEdgeStyle;rounded=0;orthogonalLoop=1;jettySize=auto;html=1;" edge="1" parent="WIyWlLk6GJQsqaUBKTNV-1" source="ytx-gQCru5eeBBM0S1Tw-10" target="ytx-gQCru5eeBBM0S1Tw-19">
          <mxGeometry relative="1" as="geometry" />
        </mxCell>
        <mxCell id="ytx-gQCru5eeBBM0S1Tw-10" value="" style="rhombus;whiteSpace=wrap;html=1;fontColor=#000000;fillColor=#ffffc0;strokeColor=#ff0000;rotation=90;" vertex="1" parent="WIyWlLk6GJQsqaUBKTNV-1">
          <mxGeometry x="412.5" y="260" width="55" height="25" as="geometry" />
        </mxCell>
        <mxCell id="ytx-gQCru5eeBBM0S1Tw-12" value="" style="edgeStyle=orthogonalEdgeStyle;html=1;align=left;verticalAlign=top;endArrow=open;endSize=8;strokeColor=#ff0000;rounded=0;" edge="1" source="ytx-gQCru5eeBBM0S1Tw-10" parent="WIyWlLk6GJQsqaUBKTNV-1">
          <mxGeometry x="-1" relative="1" as="geometry">
            <mxPoint x="160" y="273" as="targetPoint" />
            <Array as="points">
              <mxPoint x="190" y="273" />
            </Array>
          </mxGeometry>
        </mxCell>
        <mxCell id="ytx-gQCru5eeBBM0S1Tw-14" style="edgeStyle=orthogonalEdgeStyle;rounded=0;orthogonalLoop=1;jettySize=auto;html=1;exitX=1;exitY=0.5;exitDx=0;exitDy=0;" edge="1" parent="WIyWlLk6GJQsqaUBKTNV-1" source="ytx-gQCru5eeBBM0S1Tw-10" target="ytx-gQCru5eeBBM0S1Tw-10">
          <mxGeometry relative="1" as="geometry" />
        </mxCell>
        <mxCell id="ytx-gQCru5eeBBM0S1Tw-19" value="" style="rounded=1;whiteSpace=wrap;html=1;fillColor=#ffffc0;strokeColor=#ff0000;fontColor=#000000;" vertex="1" parent="WIyWlLk6GJQsqaUBKTNV-1">
          <mxGeometry x="530" y="320" width="120" height="60" as="geometry" />
        </mxCell>
      </root>
    </mxGraphModel>
  </diagram>
</mxfile>
